<svg width="24" height="24" viewBox="0 0 24 24" fill="none" xmlns="http://www.w3.org/2000/svg">
<rect x="0.6" y="0.6" width="22.8" height="22.8" rx="3.4" stroke="#777777" stroke-width="1.2"/>
<path d="M18.9549 8.93007C18.9471 8.34126 18.8368 7.7583 18.6292 7.20728C18.4491 6.74249 18.174 6.32038 17.8215 5.96792C17.4691 5.61545 17.047 5.34039 16.5822 5.1603C16.0382 4.95611 15.4636 4.8457 14.8827 4.83377C14.1348 4.80034 13.8977 4.79102 11.9992 4.79102C10.1007 4.79102 9.8574 4.79102 9.11495 4.83377C8.53433 4.84579 7.95996 4.9562 7.41626 5.1603C6.9514 5.34026 6.52923 5.61528 6.17675 5.96776C5.82427 6.32024 5.54925 6.74242 5.36928 7.20728C5.16468 7.7508 5.05452 8.32531 5.04354 8.90596C5.01011 9.65463 5 9.89175 5 11.7902C5 13.6887 5 13.9313 5.04354 14.6745C5.0552 15.256 5.16482 15.8298 5.36928 16.3748C5.54955 16.8395 5.82477 17.2615 6.17737 17.6138C6.52997 17.9661 6.95218 18.241 7.41704 18.421C7.95924 18.6334 8.53372 18.7517 9.11573 18.7708C9.86439 18.8042 10.1015 18.8143 12 18.8143C13.8985 18.8143 14.1418 18.8143 14.8843 18.7708C15.4651 18.7594 16.0398 18.6492 16.5837 18.4451C17.0484 18.2648 17.4704 17.9896 17.8228 17.6372C18.1753 17.2847 18.4504 16.8627 18.6307 16.3981C18.8352 15.8539 18.9448 15.2801 18.9565 14.6978C18.9899 13.9499 19 13.7128 19 11.8136C18.9984 9.91507 18.9984 9.67407 18.9549 8.93007V8.93007ZM11.9946 15.3804C10.009 15.3804 8.40049 13.7719 8.40049 11.7864C8.40049 9.80079 10.009 8.19228 11.9946 8.19228C12.9478 8.19228 13.8619 8.57094 14.5359 9.24496C15.21 9.91898 15.5886 10.8331 15.5886 11.7864C15.5886 12.7396 15.21 13.6537 14.5359 14.3277C13.8619 15.0018 12.9478 15.3804 11.9946 15.3804V15.3804ZM15.7317 8.89741C15.6216 8.89751 15.5126 8.87591 15.4108 8.83383C15.3091 8.79175 15.2167 8.73002 15.1388 8.65218C15.061 8.57433 14.9993 8.4819 14.9572 8.38018C14.9151 8.27845 14.8935 8.16943 14.8936 8.05934C14.8936 7.94933 14.9153 7.84041 14.9574 7.73877C14.9995 7.63714 15.0612 7.5448 15.139 7.46701C15.2167 7.38922 15.3091 7.32752 15.4107 7.28542C15.5124 7.24333 15.6213 7.22166 15.7313 7.22166C15.8413 7.22166 15.9502 7.24333 16.0519 7.28542C16.1535 7.32752 16.2458 7.38922 16.3236 7.46701C16.4014 7.5448 16.4631 7.63714 16.5052 7.73877C16.5473 7.84041 16.569 7.94933 16.569 8.05934C16.569 8.52269 16.1942 8.89741 15.7317 8.89741Z" fill="#777777"/>
<path d="M11.9948 14.1214C13.2842 14.1214 14.3294 13.0762 14.3294 11.7868C14.3294 10.4974 13.2842 9.45215 11.9948 9.45215C10.7054 9.45215 9.66016 10.4974 9.66016 11.7868C9.66016 13.0762 10.7054 14.1214 11.9948 14.1214Z" fill="#777777"/>
</svg>
