<svg width="24" height="24" viewBox="0 0 24 24" fill="none" xmlns="http://www.w3.org/2000/svg">
<rect x="0.6" y="0.6" width="22.8" height="22.8" rx="3.4" stroke="#777777" stroke-width="1.2"/>
<path d="M11.9761 5.30273C10.3477 5.31379 8.7737 5.88837 7.52344 6.92819C6.27318 7.96801 5.42431 9.40846 5.12206 11.0031C4.81981 12.5978 5.08295 14.2475 5.86647 15.6702C6.64999 17.0928 7.9052 18.2 9.41738 18.8022C9.31575 18.1394 9.31575 17.4651 9.41738 16.8023L10.2452 13.3024C10.1142 12.9855 10.0493 12.6452 10.0545 12.3025C10.0545 11.3325 10.6215 10.6025 11.3239 10.6025C11.4511 10.6006 11.5773 10.6261 11.6937 10.6774C11.8101 10.7286 11.9141 10.8042 11.9984 10.8992C12.0827 10.9942 12.1455 11.1062 12.1823 11.2276C12.2192 11.349 12.2293 11.4769 12.2119 11.6025C12.2119 12.2025 11.8306 13.1024 11.6299 13.9324C11.5867 14.0872 11.5816 14.2501 11.6149 14.4072C11.6483 14.5644 11.7192 14.7113 11.8215 14.8354C11.9239 14.9595 12.0548 15.0572 12.2031 15.1202C12.3514 15.1832 12.5127 15.2097 12.6735 15.1974C13.9177 15.1974 14.881 13.8824 14.881 11.9925C14.8935 11.6084 14.8255 11.226 14.6815 10.8696C14.5374 10.5132 14.3203 10.1906 14.0442 9.92247C13.768 9.65431 13.4388 9.44647 13.0775 9.31219C12.7163 9.17791 12.3309 9.12015 11.946 9.14259C11.535 9.125 11.1248 9.19069 10.74 9.33569C10.3553 9.48069 10.0041 9.70198 9.70767 9.98617C9.41124 10.2704 9.17576 10.6115 9.01548 10.9891C8.8552 11.3666 8.77346 11.7726 8.77519 12.1825C8.76961 12.7535 8.94521 13.3117 9.2769 13.7774C9.30102 13.8041 9.3182 13.8363 9.32695 13.8712C9.33569 13.9061 9.33574 13.9425 9.32707 13.9774C9.27188 14.1974 9.15147 14.6774 9.13141 14.7724C9.11134 14.8674 9.02605 14.9274 8.8956 14.8674C8.01761 14.4574 7.47075 13.1824 7.47075 12.1525C7.47075 9.94756 9.08124 7.91763 12.1116 7.91763C14.5448 7.91763 16.4413 9.64757 16.4413 11.9625C16.4413 14.3724 14.9362 16.3123 12.7939 16.3123C12.4798 16.3232 12.168 16.2557 11.8867 16.116C11.6055 15.9763 11.3637 15.7688 11.1834 15.5123L10.7469 17.1773C10.5377 17.8243 10.2442 18.4412 9.87393 19.0122C10.5561 19.2131 11.2648 19.3109 11.9761 19.3022C13.8389 19.3022 15.6255 18.5647 16.9427 17.252C18.26 15.9393 19 14.1589 19 12.3025C19 10.446 18.26 8.66561 16.9427 7.35291C15.6255 6.0402 13.8389 5.30273 11.9761 5.30273Z" fill="#777777"/>
</svg>
