<svg width="24" height="24" viewBox="0 0 24 24" fill="none" xmlns="http://www.w3.org/2000/svg">
<rect width="24" height="24" rx="4" fill="#5139F5"/>
<path d="M18 9.13641C17.5584 9.32841 17.0844 9.46041 16.5864 9.51801C17.0952 9.21801 17.484 8.74281 17.6688 8.17761C17.184 8.46017 16.6549 8.65896 16.104 8.76561C15.8723 8.5227 15.5935 8.32954 15.2846 8.19791C14.9758 8.06629 14.6433 7.99895 14.3076 8.00001C12.948 8.00001 11.8464 9.08601 11.8464 10.424C11.8464 10.6136 11.868 10.7984 11.91 10.976C10.9348 10.9297 9.97994 10.6806 9.10638 10.2447C8.23281 9.80871 7.45971 9.19545 6.8364 8.44401C6.61748 8.81253 6.50221 9.23337 6.5028 9.66201C6.5028 10.502 6.9384 11.246 7.5984 11.6792C7.20773 11.667 6.82543 11.563 6.4824 11.3756V11.4056C6.48611 11.969 6.68496 12.5136 7.0451 12.9468C7.40524 13.3801 7.9044 13.6751 8.4576 13.7816C8.09443 13.8776 7.71443 13.8916 7.3452 13.8224C7.50615 14.3071 7.81401 14.7296 8.22603 15.0313C8.63805 15.333 9.13378 15.4989 9.6444 15.506C8.76836 16.1811 7.69277 16.5458 6.5868 16.5428C6.3888 16.5428 6.1932 16.5308 6 16.5092C7.12857 17.2236 8.43716 17.6019 9.7728 17.6C14.3016 17.6 16.7772 13.9064 16.7772 10.7024L16.7688 10.388C17.2516 10.0487 17.6687 9.62467 18 9.13641Z" fill="white"/>
</svg>
